<?xml version="1.0" encoding="UTF-8"?>
<svg id="Layer_1" data-name="Layer 1" xmlns="http://www.w3.org/2000/svg" xmlns:xlink="http://www.w3.org/1999/xlink" viewBox="0 0 595.28 841.89">
  <defs>
    <style>
      .cls-1 {
        fill: #939598;
      }

      .cls-2 {
        fill: #00aeef;
      }

      .cls-3 {
        clip-path: url(#clippath);
      }

      .cls-4 {
        fill: none;
      }

      .cls-5 {
        fill: #231f20;
      }
    </style>
    <clipPath id="clippath">
      <rect class="cls-4" width="595.28" height="841.89"/>
    </clipPath>
  </defs>
  <g class="cls-3">
    <path class="cls-1" d="M214.97,530.07c0-5.45,1.95-8.18,5.84-8.18s5.8,2.73,5.8,8.18c0,2.53-.52,4.54-1.56,6.01-1.04,1.48-2.45,2.22-4.24,2.22-3.9,0-5.84-2.74-5.84-8.23m-16.41-19.02l-3.26,1.7v19.12c0,2.34,.62,4.27,1.85,5.8,1.49,1.79,3.62,2.68,6.38,2.68h3.21c2.95,0,5.18-1.01,6.67-3.02,1.59,2.66,4.06,3.99,7.4,3.99s5.78-1.35,7.4-4.04c1.46,2.05,3.67,3.07,6.62,3.07h3.21c2.89,0,5.1-.99,6.62-2.97,1.46,1.98,3.65,2.97,6.57,2.97h26.05v-3.02h-8.57c-2.4,0-4.32-.73-5.75-2.19-1.49-1.49-2.24-3.49-2.24-5.99,0-2.17,.61-3.93,1.83-5.26,1.22-1.33,2.8-2,4.75-2h.15c3.05,0,5.55,1.4,7.5,4.19v-3.21c-1.88-2.63-4.5-3.95-7.84-3.95-2.4,.03-4.5,.81-6.28,2.34-2.24,1.92-3.36,4.51-3.36,7.79,0,3.44,1.02,6.2,3.07,8.28h-8.91c-3.57,0-5.36-1.85-5.36-5.55v-12.27l-3.26,1.7v10.57c0,3.7-1.79,5.55-5.36,5.55h-2.39c-3.6,0-5.4-1.85-5.4-5.55v-1.66c0-3.25-.7-5.84-2.1-7.79-1.59-2.27-3.91-3.41-6.96-3.41-2.66,0-4.79,.88-6.38,2.63-1.82,1.98-2.73,4.84-2.73,8.57v1.66c0,3.7-1.79,5.55-5.36,5.55h-2.43c-3.57,0-5.36-1.85-5.36-5.55v-20.73Zm67.82-12.25c-1.27,0-2.61-.05-4.04-.15-4.77-.23-7.16-2.76-7.16-7.6,0-2.43,.53-4.33,1.58-5.67,1.05-1.35,2.54-2.02,4.46-2.02,3.44,0,5.16,1.92,5.16,5.75v9.69Zm15.26-16.12v10.57c0,3.7-1.79,5.55-5.36,5.55h-6.64v-10.03c0-2.43-.65-4.38-1.95-5.84-1.49-1.69-3.65-2.53-6.48-2.53s-4.9,.86-6.53,2.58c-1.82,1.92-2.73,4.63-2.73,8.13,0,2.99,.73,5.37,2.19,7.16,1.78,2.11,4.48,3.25,8.08,3.41l4.14,.15c0,1.04-.34,2.09-1.02,3.14s-1.53,1.84-2.53,2.36c-1.01,.58-2.18,.88-3.51,.88-1.65,0-3.33-.45-5.02-1.36v2.87c1.79,.91,3.62,1.36,5.5,1.36,.91,0,1.75-.11,2.53-.34,2.14-.52,3.89-1.6,5.24-3.24,1.35-1.64,2.04-3.53,2.07-5.67h7.03c2.43,0,4.38-.7,5.84-2.09,1.59-1.53,2.39-3.65,2.39-6.38v-12.37l-3.26,1.7Zm-8.17-3.2c1.27,0,1.9-.68,1.9-2.05s-.63-1.95-1.9-1.95c-1.33,0-2,.65-2,1.95,0,1.36,.67,2.05,2,2.05m-29.15,33.56c1.27,0,1.9-.68,1.9-2.05s-.63-1.95-1.9-1.95c-1.33,0-2,.65-2,1.95,0,1.36,.67,2.05,2,2.05m-5.55,0c1.27,0,1.9-.68,1.9-2.05s-.63-1.95-1.9-1.95c-1.33,0-2,.65-2,1.95,0,1.36,.67,2.05,2,2.05m-65.23,24.29l-1.56,3.02h11.25c4.51,0,6.77-2.66,6.77-7.99,0-5.84-2.65-10.31-7.94-13.39l-1.56,2.68c4.16,2.37,6.23,5.93,6.23,10.67,0,1.85-.3,3.15-.9,3.9-.6,.75-1.65,1.12-3.14,1.12h-9.16Zm-.25-45.89c-1.43,2.01-2.14,4.42-2.14,7.21,0,3.12,.89,5.79,2.68,8.04,2.27,2.92,5.47,4.38,9.59,4.38,3.38,0,6.17-.88,8.38-2.63,2.5-1.95,3.86-4.63,4.09-8.04,1.33,.94,3,1.41,5.02,1.41h38.35c2.43,0,4.38-.7,5.84-2.09,1.59-1.53,2.39-3.65,2.39-6.38v-12.37l-3.26,1.7v10.57c0,3.7-1.79,5.55-5.36,5.55h-37.57c-3.57,0-5.36-1.85-5.36-5.55v-12.27l-3.26,1.7v16.75c0,2.43-.7,4.4-2.09,5.89-1.69,1.82-4.08,2.73-7.16,2.73-2.63,0-4.8-.86-6.53-2.58-1.85-1.85-2.78-4.2-2.78-7.06,0-2.69,.78-5.23,2.34-7.6l-3.17,.63Zm10.47-4.52c1.27,0,1.9-.68,1.9-2.05s-.63-1.95-1.9-1.95c-1.33,0-2,.65-2,1.95,0,1.36,.66,2.05,2,2.05m12.73-38.83c0-1.33-.65-2-1.95-2s-1.95,.67-1.95,2,.65,2,1.95,2,1.95-.66,1.95-2m5.55,0c0-1.33-.65-2-1.95-2s-1.95,.67-1.95,2,.65,2,1.95,2,1.95-.66,1.95-2m80.53,17.35c1.59-1.53,2.39-3.65,2.39-6.38v-12.37l-3.26,1.7v10.57c0,3.7-1.79,5.55-5.36,5.55h-10.72c-3.7,0-5.55-1.92-5.55-5.75v-12.08l-3.26,1.7v10.57c0,3.7-1.8,5.55-5.41,5.55h-1.75c-3.6,0-5.41-1.85-5.41-5.55v-10.52l-3.26,1.75v8.77c0,3.7-1.79,5.55-5.36,5.55h-1.8c-3.57,0-5.36-1.85-5.36-5.55v-8.72l-3.26,1.7v7.01c0,3.7-1.8,5.55-5.41,5.55h-3.7c-3.57,0-5.36-1.85-5.36-5.55v-12.27l-3.26,1.7v10.57c0,3.7-1.79,5.55-5.36,5.55h-10.43c-3.57,0-5.36-1.85-5.36-5.55v-12.27l-.05,.05v-.05l-3.21,1.7v17c0,3.73-1.14,6.28-3.41,7.65-1.04,.62-2.24,.93-3.6,.93-1.72,0-3.41-.46-5.07-1.36v2.87c1.75,.91,3.57,1.36,5.45,1.36,1.17,0,2.27-.18,3.31-.54,4.09-1.43,6.26-4.84,6.53-10.23,1.33,.97,3,1.46,5.02,1.46h11.21c2.89,0,5.1-.99,6.62-2.97,1.46,1.98,3.65,2.97,6.57,2.97h4.53c3.02,0,5.21-1.07,6.57-3.21,1.4,2.14,3.6,3.21,6.62,3.21h2.68c2.95,0,5.13-1.07,6.53-3.21,1.36,2.14,3.56,3.21,6.57,3.21h2.68c2.99,0,5.19-1.09,6.62-3.26,1.43,2.17,3.68,3.26,6.77,3.26h11.45c2.43,0,4.38-.7,5.84-2.09m2.39,74.91v-29.3l-3.26,1.7v27.59h3.26Z"/>
    <path class="cls-5" d="M406.28,552.79h18.01v18.01h-18.01v-18.01Zm-9.47-106.64h4.23c3.82,0,5.73-1.87,5.73-5.61v-.12c0-3.74-1.91-5.61-5.73-5.61h-1.33c-1.92,.78-2.9,2.51-2.9,5.25v6.08Zm4.23,18.01h-31.76v-18.01h9.53v-6.08c0-6.36,2.33-11.83,6.98-16.4,4.31-4.23,9.39-5.59,15.23-5.91l.02-.06c.23,0,.45,.02,.68,.03,.24,0,.46-.03,.7-.03v.06c5.78,.32,10.79,1.72,15.02,6.03,4.32,4.39,6.57,9.58,6.81,15.57h.05v2.27h-.05c-.24,5.98-2.5,11.18-6.81,15.57-4.57,4.65-10.04,6.98-16.4,6.98m-58.8,93.19c22.4-7.9,27.09-28.61,27.09-35.96v-44.45h18.01v41.12c0,3.98,1.91,5.97,5.73,5.97h13.22v-47.08h18.01v64.62h-31.23c-3.58,0-8.1-.66-8.34-1.46,0,0-11.28,30.06-35.33,32.33l-7.17-15.08Zm11.86-93.19h-18.01v-18.01h18.01v18.01Zm-54.65,77.39v-95.37h18.01v77.84h13.02c3.74,0,5.61-1.91,5.61-5.73v-41.36h18.01v41.36c0,6.36-2.33,11.83-6.98,16.4-4.6,4.53-10.09,6.79-16.45,6.84v.02h-31.22Z"/>
    <path class="cls-5" d="M205.73,368.61l51.4,29.61-9.96,5.75s-12.93,7.46-25.86,0l-37.41-21.6s-12.93-7.46-12.93-22.39v-43.2s0-14.93,12.93-22.39l9.89-5.71c0,20.19,0,60.48,0,60.48h0c.08,7.46,4.63,14.98,11.97,19.43l-.05,.03Zm39.93-70.35l29.04,16.76v32.94l-29.04-16.04v-33.67Zm86.61,9.88l.05,.03c-7.34,4.45-11.89,11.97-11.97,19.44h0s0,40.28,0,60.47l-9.89-5.71c-12.93-7.46-12.93-22.39-12.93-22.39v-43.2c0-14.93,12.93-22.39,12.93-22.39l37.41-21.6c12.93-7.46,25.86,0,25.86,0l9.96,5.75-51.4,29.61Zm68.97,20.64v32.95l-29.04,16.76v-33.67l29.04-16.04Z"/>
    <path class="cls-2" d="M332.27,308.13h0l.04-.02-.04,.02Zm-138.46,40.91v0Zm80.89-34.02l-29.04-16.76v33.67l29.04,16.04v-32.94Zm22.82,1.75v43.2s0,14.93-12.93,22.39l-27.46,15.85-22.85-13.16,29.51-17.04-29.38-16.23-28.69,16.82h0s0,0,0,0l.05-.03c-7.34-4.45-11.89-11.97-11.97-19.44h0s29.03-17.02,29.03-17.02v-33.87l-29.04,16.76v.06h0c0-9.53,0-19.24,0-26.41l27.52-15.89s12.93-7.46,25.86,0l37.41,21.6s12.93,7.46,12.93,22.39m22.83,10.83h0s0,0,0,0Zm0,0h0s0,0,0,0h0s0,0,0,0Zm80.89,1.18l-29.04,16.04v33.67l29.04-16.76v-32.94Zm22.82-12.01v43.2c0,14.93-12.93,22.39-12.93,22.39l-37.41,21.6c-12.93,7.46-25.86,0-25.86,0l-27.52-15.89c0-7.18,0-16.9,0-26.44h0s0,.09,0,.09l29.03,16.76v-33.87l-28.45-16.68v-.02l-.36-.19-.21-.12c.08-7.46,4.63-14.99,11.97-19.44l28.64,16.79,29.38-16.23-29.51-17.04,22.85-13.16,27.45,15.85c12.93,7.47,12.93,22.39,12.93,22.39"/>
  </g>
</svg>